<?xml version="1.0" encoding="UTF-8" standalone="no"?>
<!-- Created with Inkscape (http://www.inkscape.org/) -->

<svg
   width="178.81181mm"
   height="139.03195mm"
   viewBox="0 0 178.81181 139.03195"
   version="1.1"
   id="svg1"
   xml:space="preserve"
   xmlns="http://www.w3.org/2000/svg"
   xmlns:svg="http://www.w3.org/2000/svg"><defs
     id="defs1" /><g
     id="layer2"
     transform="translate(-11.324723,-60.162596)"><g
       id="g8"><path
         style="display:inline;fill:#3f3e49;fill-opacity:1;stroke:none;stroke-width:0.264583;stroke-opacity:0.918972"
         d="m 101.77641,116.5327 c 0,0 5.68295,-7.78177 6.135,-8.36298 0.45205,-0.58121 5.68294,-6.58705 8.20152,-8.524415 2.51858,-1.937369 6.84537,-5.101738 7.55574,-5.48921 0.71037,-0.387474 5.8121,-2.841474 5.8121,-2.841474 0,0 6.84537,-1.679054 7.62032,-1.679054 0.77494,0 3.93931,-0.322892 4.19763,-0.322892 0.25831,0 3.55184,0.710366 3.55184,0.710366 l 29.25426,11.495049 c 0,0 4.19763,2.26027 4.84342,2.7769 0.64579,0.51663 3.95546,3.84244 4.11691,4.05233 0.16145,0.20988 3.18051,4.74655 3.42268,5.26318 0.24218,0.51663 2.17954,4.79499 2.26027,5.58608 0.0807,0.79109 1.25929,6.23186 1.25929,6.23186 0,0 0.12915,4.11691 0.12915,4.26221 0,0.14531 -0.0161,9.50925 -0.0161,9.50925 l -1.24314,7.45887 c 0,0 -1.88893,7.11983 -1.95351,7.29742 -0.0646,0.17759 -2.21183,6.31259 -2.21183,6.31259 l -3.11594,6.82923 -3.98775,7.11983 -4.08461,5.68294 -3.93932,4.66583 -1.59833,1.88893 -3.71329,3.37425 -3.53569,2.72846 -2.61545,1.85665 -2.88991,1.56604 -3.90703,1.61447 c 0,0 -2.79303,0.87182 -3.11593,0.96869 -0.32289,0.0969 -4.47209,0.54892 -4.47209,0.54892 0,0 -3.42268,0.19373 -4.4398,-0.0161 -1.01712,-0.20988 -5.74753,-1.46917 -5.74753,-1.46917 l -9.10563,-4.18149 -10.31648,-4.7627 -9.25094,-4.7304 -3.58413,-2.79304 c 0,0 -3.002919,-3.45498 -3.309669,-3.90703 -0.30675,-0.45205 -2.38942,-3.56799 -2.599301,-4.11691 -0.209883,-0.54892 -1.485315,-3.89088 -1.598329,-4.27835 -0.113014,-0.38748 -1.307725,-4.66583 -1.356159,-5.13403 -0.04843,-0.4682 -0.58121,-4.10076 -0.774946,-5.47306 -0.193736,-1.37231 -0.06458,-7.2167 -0.03229,-7.45887 0.03229,-0.24217 1.19471,-8.20153 1.243145,-8.78274 0.04843,-0.58121 1.16242,-7.73333 1.16242,-7.73333 l 3.6488,-9.79513 z"
         id="path7" /><path
         style="display:inline;fill:#3f3e49;fill-opacity:1;stroke:none;stroke-width:0.264583;stroke-opacity:0.918972"
         d="m 93.639462,134.38877 c 0,0 -5.14223,7.05611 -5.324888,7.33009 -0.182655,0.27399 -7.123615,7.35194 -7.123615,7.35194 l -6.187501,4.20111 c 0,0 -3.630303,1.73524 -4.178274,1.98639 -0.54797,0.25115 -8.584871,2.44304 -8.721865,2.44304 -0.13699,0 -5.137221,0.29681 -7.237775,-0.0685 -2.100553,-0.36531 -8.447878,-2.4887 -9.110008,-2.80835 -0.662133,-0.31965 -12.922973,-7.30627 -12.922973,-7.30627 0,0 -8.516373,-5.22855 -8.858855,-5.43404 -0.342481,-0.20549 -4.794741,-4.20111 -5.342712,-5.00023 -0.54797,-0.79913 -2.922509,-4.65775 -3.105166,-5.16006 -0.182657,-0.5023 -3.287823,-7.83141 -3.356319,-8.49354 -0.0685,-0.66213 -0.525138,-4.49793 -0.593635,-5.27422 -0.0685,-0.77629 -0.251153,-7.51176 -0.251153,-8.90452 0,-1.39276 1.073109,-8.10539 1.164437,-8.58487 0.09133,-0.47947 1.872233,-6.918125 2.420203,-8.014066 0.547971,-1.095941 3.858626,-7.60309 4.3381,-8.310885 0.479474,-0.707795 5.274216,-8.151061 6.073339,-8.927354 0.799124,-0.77629 4.223941,-4.45226 5.182888,-5.160055 0.958948,-0.707794 5.959179,-4.475091 7.032287,-5.091557 1.07311,-0.616468 5.936347,-2.968175 6.347325,-3.105168 0.410977,-0.136991 6.004843,-1.666743 7.032289,-1.689574 1.027443,-0.02283 3.127996,-0.205488 4.315266,-0.205488 1.18727,0 4.406596,0.388143 5.182889,0.66213 0.77629,0.273984 7.991234,2.465866 7.991234,2.465866 l 11.005074,3.401984 c 0,0 6.1875,1.96356 7.329106,2.717019 1.141606,0.753459 3.516143,2.032058 4.041283,2.557198 0.525137,0.525137 3.835791,2.991004 5.000231,4.863238 1.164436,1.872231 3.493309,5.593865 4.338096,7.625921 0.84479,2.032058 1.73524,4.703413 2.00923,5.730859 0.27398,1.027443 0.95895,6.233162 1.00461,7.192113 0.0457,0.958948 0.95895,6.347319 0.15983,9.064349 -0.79913,2.71701 -2.10056,11.07356 -2.10056,11.07356 z"
         id="path8" /><path
         style="fill:#ffffff;fill-opacity:1;stroke:#000000;stroke-width:0.264583;stroke-opacity:0.918972"
         d="m 65.66513,101.87684 4.209282,-2.102379 h 4.068474 l 2.683886,1.549539 1.822601,1.8226 1.886828,3.53781 v 1.227 l -7.84634,-3.22895 -2.098818,0.0323 -3.03521,1.06555 -2.227972,2.51858 -1.77592,3.0675 -0.710369,2.93834 0.129156,3.22895 0.936395,2.68003 1.420738,1.19471 7.9755,3.84244 -1.775923,0.96869 -2.583156,0.9041 -2.163395,0.0969 -2.809185,-0.48434 -2.873761,-2.454 -1.969659,-3.90703 -0.258315,-5.45692 1.000974,-4.81113 2.292551,-4.19763 z"
         id="path1" /><path
         style="fill:#dedede;fill-opacity:1;stroke:#000000;stroke-width:0.264583;stroke-opacity:0.918972"
         d="m 68.587638,123.06504 -3.492066,-1.63242 -1.412666,-1.18663 -0.92832,-2.73654 -0.09687,-3.22894 0.718439,-2.93027 1.719416,-2.97871 2.268333,-2.58315 3.03521,-1.04134 2.106891,-0.0565 3.701846,1.56437 -1.893636,0.52638 -3.09979,1.75977 -1.46917,1.56604 -1.937369,3.64871 -0.661935,2.63159 0.177594,3.19666 0.936392,2.48629 z"
         id="path2" /><path
         style="fill:#8b8b92;fill-opacity:1;stroke:none;stroke-width:0.264583;stroke-opacity:0.918972"
         d="m 76.364358,106.2432 25.516762,10.22769 -2.462793,5.79664 -4.318004,9.91219 -1.000975,2.42171 -25.369011,-11.59347 -1.255766,-3.45906 -0.188364,-3.20221 0.662133,-2.62569 1.935019,-3.65884 1.466964,-1.53546 3.093749,-1.78661 z"
         id="path5" /></g></g></svg>
